<svg id="Layer_1" data-name="Layer 1" xmlns="http://www.w3.org/2000/svg" viewBox="0 0 1536 1024"><path d="M537,283.4h71.4c18.9,0,30.4,2.4,44.2,15.9l4.4,4.5,4.6,4.6c4,4.1,8,8.1,11.8,12.5s7.2,7.8,11,11.6l2.1,2.1L693,341l8.6,8.5,1.9,1.9c3,3,5.9,6,8.6,9.2,5,5.8,10.5,11.1,15.9,16.5l6.1,6L747,396l15,14.9,5.9,5.9c5.4,5.4,10.6,10.6,15.5,16.4,3.2,3.6,6.7,7,10.1,10.4l2.4,2.4,7.6,7.5,10,9.9,2.2,2.3c4.1,4,8,8.1,11.7,12.5,2.2,2.5,4.5,4.8,6.8,7.1l1.4,1.4L840,491c10.7,10.5,10.7,10.5,14.3,14.8,5.5,6.4,11.7,12.3,17.7,18.2,13.8,13.7,13.8,13.7,17.4,17.9,5.8,6.8,12.3,12.9,18.6,19.1,15.5,15.4,15.5,15.4,20.7,21.5A44.2,44.2,0,0,0,938,591c3.4.3,3.4.3,6-1s1.1-4,1.1-6.8V545.6c.1-6.6,1.2-10.4,6.1-15.1s10.5-3.8,16.9-3.8h27.3c6,0,10.6,1,15.6,4.5,4.6,5,5.1,8.3,5.1,14.9a20.1,20.1,0,0,1,.1,2.5v30.4c0,3.4,0,6.7.1,10.1v31.6c0,12.2,0,24.3.1,36.5v28.2c0,5.6,0,11.2.1,16.8v31.9c0,5.2-1.3,8.1-4.5,12.1-5.2,4.2-11.1,4.6-17.5,4.6H977.6c-20.3.1-30-7-44-20.9l-7.2-7.2-3.9-3.9-8.1-8c-3.4-3.5-6.8-6.9-10.3-10.3l-7.9-8-3.8-3.8c-5.7-5.7-11.3-11.3-16.6-17.4-3.8-4.4-8-8.4-12.1-12.5-1.8-1.7-3.5-3.4-5.2-5.2l-11-10.9-12.7-12.7-5.1-5c-8.5-8.5-8.5-8.5-12.1-12.7s-9.9-10.5-15.1-15.6l-5.7-5.8-12.3-12.2c-4.7-4.7-9.5-9.4-14.2-14.2l-5.7-5.6c-5.1-5.1-10.1-10.2-14.8-15.7s-7.5-7.8-11.4-11.7l-4.8-4.7-10.1-10.1-11.8-11.7-4.6-4.6c-4.7-4.6-9.2-9.3-13.4-14.3s-11.6-12.1-17.4-18l-5-5.1-7.4-7.4-2.2-2.3c-10.7-10.6-21.9-14.3-36.8-14.4H546.1c-3.2.1-6.5,0-9.8,0h-2.9c-5.6,0-8.9-.7-13.4-4.5s-5.1-6.6-5.1-12.2V398.1c0-1.4,0-2.9-.1-4.3V373.2c0-8,0-15.9-.1-23.8V331c0-3.7,0-7.3-.1-11V304.1c.1-10.6.1-10.6,4.5-15.1S529.7,283.3,537,283.4Z" fill="#fefcf6"/><path d="M533.6,526.9H658.7c17,.1,26.6,7.5,38.2,19.1l2.2,2.2,7.2,7.2,5,5,10.5,10.5,13.4,13.4c3.5,3.4,7,6.9,10.4,10.4l5,4.9,6.9,6.9,2,2c6.2,6.3,13.7,14.3,13.8,23.6V691c.1,6.5.1,13,.1,19.4v20.9c0,6-.6,9.8-4.9,14.2s-7.9,4.6-14.1,4.6H608.1c-16.7.1-26-4.5-37.8-15.9l-6.5-6.5-3.5-3.4-7.2-7.3-9.3-9.2-7.2-7.2c-1.1-1.2-2.3-2.3-3.4-3.4-17.5-17.4-17.5-17.4-18.5-27.3V638.7c-.1-7.8-.1-15.6-.1-23.4V593.4c0-6.2-.1-12.5-.1-18.7V547.3c0-6.4.1-10.5,4.5-15.3S527.5,526.9,533.6,526.9Z" fill="#fefcf7"/><path d="M768.9,283.9H920.5c11.8-.1,21.3.9,30.3,9.3L953,295l2.8,2.7,7.7,7.6,4.7,4.8c8.5,8.5,8.5,8.5,12.3,12.9s6.2,6.7,9.4,9.9l1.7,1.6,6.7,6.5c17.4,16.9,17.4,16.9,17.8,27.8.1,1.6.1,3.2.1,4.8v30.1c0,5.4,0,10.9.1,16.3v12.5c0,2,0,4,.1,6v10.9c0,5.7-1.2,8.9-4.5,13.6-7.4,6.1-15,6.3-24.3,6.3h-96c-16.7-.1-26.6-9.1-37.7-20.3-2.1-2.2-4.1-4.4-6-6.7-5.5-6.4-11.6-12.1-17.5-18l-7.2-7.1-1.6-1.6q-4.2-4.2-8.1-8.7c-3.7-4.3-7.7-8.3-11.7-12.3l-2.3-2.2-7.1-7.1-9.4-9.3-2.2-2.2q-5.9-5.8-11.4-12.3c-2-2.3-4.3-4.4-6.6-6.6-10.8-10.8-14.3-22.2-14.3-37.3v-8c0-14.8,0-14.8,5.1-20.9l1.8-1.3,1.8-1.5C761,283.7,764.5,283.9,768.9,283.9Z" fill="#fdfbf6"/><path d="M637,436a43.2,43.2,0,0,1,5,2v2l-14-2C631.8,436.1,633,435.6,637,436Z" fill="#eaeaea"/><path d="M674,529a36.6,36.6,0,0,1,12,6c-3,1-3,1-6,0v-2l-1.9-.4A15.9,15.9,0,0,1,674,531Z" fill="#eaebeb"/><path d="M747,321h1l1,8h1l1,6-3,1c-1.4-2.9-1.1-5.4-1.1-8.6V321Z" fill="#091423"/><path d="M710,358a41.3,41.3,0,0,1,8,5l-1,3-3.5-2.9-2-1.6L710,360Z" fill="#20252e"/><path d="M691,484c3.8,1.5,5.6,3.8,8,7-3,0-3,0-5.7-2.4S691,486,691,484Z" fill="#22262e"/><path d="M700,491l3,1v2l4,2-1,3-3-2.9-1.7-1.6C700,493,700,493,700,491Z" fill="#d9dadb"/><path d="M874,670c3.4,1.4,5,3,7,6-3,0-3,0-5.2-1.9S874,672,874,670Z" fill="#232930"/><path d="M783,432c3.4,1.4,5,3,7,6-3,0-3,0-5.2-1.9S783,434,783,432Z" fill="#222730"/><path d="M768,361c3.4,1.4,5,3,7,6-3,0-3,0-5.2-1.9S768,363,768,361Z" fill="#21252d"/></svg>